<?xml version="1.0" encoding="utf-8"?>
<!-- Generator: Adobe Illustrator 23.0.1, SVG Export Plug-In . SVG Version: 6.00 Build 0)  -->
<svg version="1.1" id="Layer_1" xmlns="http://www.w3.org/2000/svg" xmlns:xlink="http://www.w3.org/1999/xlink" x="0px" y="0px"
	 viewBox="0 0 170 29.03" style="enable-background:new 0 0 170 29.03;" xml:space="preserve">
<style type="text/css">
	.st0{fill:#FFFFFF;}
</style>
<path class="st0" d="M13.46,14.52c0-5.25-4.18-9.4-9.38-9.4H0v18.77h4.08C9.28,23.89,13.46,19.75,13.46,14.52 M20.79,17.56
	l-6.64,11.47h13.24L20.79,17.56z M20.79,11.47L27.39,0H14.14L20.79,11.47z M28.08,14.52c0,5.23,4.18,9.38,9.38,9.38h4.08V5.12h-4.08
	C32.26,5.12,28.08,9.26,28.08,14.52 M166.48,21c-0.64,1.62-1.45,2.4-3.28,2.4c-0.43,0-0.77-0.03-1.06-0.07v-2.04
	c0.25,0.04,0.61,0.09,0.8,0.09c0.61,0,1-0.24,1.31-1l0.19-0.48l-3.31-7.73h2.65l1.92,4.75l1.77-4.74h2.5L166.48,21 M156.05,17.98
	c-1.07,0-1.82-0.89-1.82-1.95c0-1.06,0.75-1.97,1.82-1.97c1.12,0,1.86,0.91,1.86,1.97C157.92,17.08,157.17,17.98,156.05,17.98
	 M160.36,20.02v-7.85h-2.4v1.13c-0.45-0.82-1.45-1.33-2.43-1.33c-2.25,0-3.74,1.74-3.74,4.05c0,2.29,1.55,3.92,3.77,3.92
	c1,0,1.95-0.49,2.37-1.19v1.33c0,1.1-0.58,1.71-1.74,1.71c-1.03,0-1.59-0.48-1.7-1.18h-2.41c0.13,1.71,1.49,2.94,4.05,2.94
	C158.97,23.55,160.36,22.27,160.36,20.02 M146.74,17.98c-1.1,0-1.82-0.88-1.82-1.95s0.72-1.97,1.82-1.97c1.1,0,1.83,0.89,1.83,1.97
	S147.84,17.98,146.74,17.98 M146.74,20.08c2.68,0,4.28-1.86,4.28-4.05c0-2.21-1.59-4.07-4.28-4.07c-2.65,0-4.26,1.86-4.26,4.07
	C142.48,18.22,144.09,20.08,146.74,20.08 M138.87,19.87h2.43V8.69h-2.43V19.87z M133.42,17.98c-1.1,0-1.82-0.88-1.82-1.95
	s0.72-1.97,1.82-1.97s1.83,0.89,1.83,1.97S134.52,17.98,133.42,17.98 M133.42,20.08c2.68,0,4.28-1.86,4.28-4.05
	c0-2.21-1.59-4.07-4.28-4.07c-2.65,0-4.26,1.86-4.26,4.07C129.16,18.22,130.77,20.08,133.42,20.08 M120.31,19.87h2.43v-4.02
	c0-1.09,0.51-1.79,1.49-1.79c1.04,0,1.37,0.64,1.37,1.56v4.25h2.43v-4.43c0-2.18-0.95-3.47-2.91-3.47c-1.15,0-1.98,0.51-2.41,1.31
	v-1.12h-2.4V19.87z M111.05,19.87h2.43v-4.02c0-1.09,0.51-1.79,1.49-1.79c1.04,0,1.37,0.64,1.37,1.56v4.25h2.43v-4.43
	c0-2.18-0.95-3.47-2.91-3.47c-1.13,0-1.95,0.51-2.38,1.31V8.69h-2.43V19.87z M109.96,15.13c-0.3-1.79-1.62-3.17-3.95-3.17
	c-2.61,0-4.19,1.86-4.19,4.07c0,2.19,1.58,4.05,4.19,4.05c2.32,0,3.65-1.39,3.95-3.17h-2.44c-0.21,0.67-0.73,1.12-1.49,1.12
	c-1.07,0-1.76-0.91-1.76-2c0-1.09,0.69-2.01,1.76-2.01c0.76,0,1.27,0.45,1.48,1.12H109.96z M97.06,13.69c0.92,0,1.52,0.58,1.61,1.49
	h-3.26C95.5,14.24,96.15,13.69,97.06,13.69 M100.86,17.53h-2.31c-0.25,0.46-0.7,0.79-1.46,0.79c-1.1,0-1.65-0.7-1.7-1.67h5.6
	c0.04-0.36,0.06-0.63,0.06-0.91c0-2.04-1.42-3.78-3.96-3.78c-2.62,0-4.05,1.83-4.05,4.07c0,2.22,1.45,4.05,4.08,4.05
	C99.22,20.08,100.47,18.96,100.86,17.53 M86.75,12.17v1.91h1.21v3.13c0,2.12,1.01,2.79,2.85,2.79c0.67,0,1.18-0.06,1.52-0.12v-1.95
	c-0.3,0.04-0.75,0.09-0.97,0.09c-0.63,0-0.97-0.21-0.97-0.98v-2.95h1.76v-1.91h-1.76V9.89h-2.43v2.28H86.75z M83.46,18.45
	c0,0.85,0.69,1.55,1.55,1.55c0.88,0,1.55-0.7,1.55-1.55c0-0.85-0.67-1.55-1.55-1.55C84.14,16.9,83.46,17.6,83.46,18.45 M77.51,20.06
	c3.08,0,4.77-1.85,5.1-4.2h-2.55c-0.24,1.12-1.16,1.95-2.49,1.95c-1.92,0-2.92-1.53-2.92-3.31s1-3.31,2.92-3.31
	c1.33,0,2.25,0.83,2.49,1.95h2.55c-0.33-2.35-2.01-4.2-5.1-4.2c-3.44,0-5.44,2.62-5.44,5.56C72.07,17.44,74.07,20.06,77.51,20.06
	 M69.15,19.87h2.95l-3.47-5.39l3.44-5.33h-2.89l-2.13,3.53l-2.16-3.53h-2.94l3.46,5.33l-3.49,5.39h2.88l2.19-3.58L69.15,19.87z
	 M56.35,11.32c1.98,0,3.11,1.55,3.11,3.19c0,1.62-1.13,3.19-3.11,3.19h-1.3v-6.38H56.35z M52.54,19.87h3.93
	c3.58,0,5.57-2.62,5.57-5.36c0-2.74-2.01-5.36-5.57-5.36h-3.93V19.87z"/>
</svg>
